<svg id="visual" viewBox="0 0 960 540" width="960" height="540" xmlns="http://www.w3.org/2000/svg" xmlns:xlink="http://www.w3.org/1999/xlink" version="1.1"><rect x="0" y="0" width="960" height="540" fill="#001220"></rect><g fill="#A7233A"><circle r="48" cx="153" cy="227"></circle><circle r="21" cx="875" cy="353"></circle><circle r="25" cx="138" cy="350"></circle><circle r="43" cx="173" cy="18"></circle><circle r="46" cx="573" cy="405"></circle><circle r="39" cx="228" cy="144"></circle><circle r="43" cx="850" cy="175"></circle><circle r="26" cx="439" cy="227"></circle><circle r="36" cx="505" cy="122"></circle><circle r="38" cx="473" cy="345"></circle><circle r="45" cx="678" cy="151"></circle><circle r="44" cx="895" cy="522"></circle><circle r="22" cx="43" cy="181"></circle><circle r="33" cx="19" cy="6"></circle><circle r="23" cx="44" cy="403"></circle><circle r="32" cx="624" cy="69"></circle><circle r="26" cx="275" cy="390"></circle><circle r="29" cx="764" cy="481"></circle><circle r="40" cx="773" cy="319"></circle><circle r="21" cx="644" cy="254"></circle><circle r="33" cx="154" cy="538"></circle><circle r="28" cx="900" cy="81"></circle><circle r="24" cx="325" cy="534"></circle><circle r="32" cx="411" cy="468"></circle><circle r="40" cx="318" cy="48"></circle><circle r="22" cx="652" cy="471"></circle><circle r="40" cx="495" cy="515"></circle><circle r="35" cx="97" cy="78"></circle></g></svg>